<?xml version="1.0" encoding="UTF-8" standalone="no"?>
<!-- Created with Inkscape (http://www.inkscape.org/) -->

<svg
   xmlns:dc="http://purl.org/dc/elements/1.1/"
   xmlns:cc="http://creativecommons.org/ns#"
   xmlns:rdf="http://www.w3.org/1999/02/22-rdf-syntax-ns#"
   xmlns:svg="http://www.w3.org/2000/svg"
   xmlns="http://www.w3.org/2000/svg"
   xmlns:sodipodi="http://sodipodi.sourceforge.net/DTD/sodipodi-0.dtd"
   xmlns:inkscape="http://www.inkscape.org/namespaces/inkscape"
   width="11.492906mm"
   height="11.209468mm"
   viewBox="0 0 11.492906 11.209468"
   version="1.1"
   id="svg95920"
   inkscape:version="0.92.5 (2060ec1f9f, 2020-04-08)"
   sodipodi:docname="GithubIcon.svg">
  <defs
     id="defs95914" />
  <sodipodi:namedview
     id="base"
     pagecolor="#ffffff"
     bordercolor="#666666"
     borderopacity="1.0"
     inkscape:pageopacity="0.0"
     inkscape:pageshadow="2"
     inkscape:zoom="6.6357552"
     inkscape:cx="31.676089"
     inkscape:cy="3.6149988"
     inkscape:document-units="mm"
     inkscape:current-layer="layer1"
     showgrid="false"
     inkscape:window-width="1848"
     inkscape:window-height="1016"
     inkscape:window-x="72"
     inkscape:window-y="27"
     inkscape:window-maximized="1"
     fit-margin-top="0"
     fit-margin-left="0"
     fit-margin-right="0"
     fit-margin-bottom="0" />
  <metadata
     id="metadata95917">
    <rdf:RDF>
      <cc:Work
         rdf:about="">
        <dc:format>image/svg+xml</dc:format>
        <dc:type
           rdf:resource="http://purl.org/dc/dcmitype/StillImage" />
        <dc:title></dc:title>
      </cc:Work>
    </rdf:RDF>
  </metadata>
  <g
     inkscape:label="Layer 1"
     inkscape:groupmode="layer"
     id="layer1"
     transform="translate(-95.526494,-96.969248)">
    <path
       d="m 101.27253,96.969248 c -3.172876,0 -5.746036,2.572808 -5.746036,5.746752 0,2.53859 1.64641,4.69265 3.92994,5.45288 0.28752,0.0526 0.39229,-0.12488 0.39229,-0.27728 0,-0.13652 -0.005,-0.49777 -0.008,-0.97719 -1.59843,0.34713 -1.93569,-0.77047 -1.93569,-0.77047 -0.26141,-0.66393 -0.63817,-0.84067 -0.63817,-0.84067 -0.52176,-0.35631 0.0395,-0.34925 0.0395,-0.34925 0.57679,0.0406 0.88018,0.59231 0.88018,0.59231 0.512581,0.87807 1.34514,0.62442 1.672521,0.47731 0.0522,-0.37112 0.200725,-0.62441 0.364765,-0.76799 -1.275995,-0.14535 -2.617606,-0.63818 -2.617606,-2.84022 0,-0.62759 0.22401,-1.14018 0.59161,-1.54199 -0.0593,-0.14534 -0.25647,-0.72954 0.0564,-1.520826 0,0 0.48224,-0.154516 1.58009,0.588787 0.458256,-0.127353 0.950026,-0.190853 1.438626,-0.193323 0.48824,0.0025 0.97966,0.06597 1.43862,0.193323 1.09714,-0.743303 1.57868,-0.588787 1.57868,-0.588787 0.31362,0.791286 0.11642,1.375486 0.0575,1.520826 0.3683,0.40181 0.59055,0.9144 0.59055,1.54199 0,2.20768 -1.34373,2.69346 -2.6236,2.83563 0.20602,0.17745 0.38982,0.52811 0.38982,1.06433 0,0.768 -0.007,1.38783 -0.007,1.57621 0,0.15381 0.10371,0.33267 0.39511,0.27658 2.28176,-0.76165 3.92677,-2.91395 3.92677,-5.45218 0,-3.173944 -2.57316,-5.746752 -5.7471,-5.746752"
       style="fill:#1b1817;fill-opacity:1;fill-rule:evenodd;stroke:none;stroke-width:0.03527778"
       id="path16"
       inkscape:connector-curvature="0" />
  </g>
</svg>
